HIERARCHY
ROOT joint_Root
{
	OFFSET 0.0 0.0 0.0
	CHANNELS 6 Xposition Yposition Zposition Zrotation Xrotation Yrotation 
	JOINT Hips
	{
		OFFSET 4.5925 91.4895 -427.239
		CHANNELS 6 Xposition Yposition Zposition Zrotation Xrotation Yrotation 
		JOINT Spine
		{
			OFFSET 15.7357 0.0 0.0
			CHANNELS 6 Xposition Yposition Zposition Zrotation Xrotation Yrotation 
			JOINT Chest
			{
				OFFSET 8.98455 -0.406207 0.0
				CHANNELS 6 Xposition Yposition Zposition Zrotation Xrotation Yrotation 
				JOINT Neck
				{
					OFFSET 16.3773 0.0 0.0
					CHANNELS 6 Xposition Yposition Zposition Zrotation Xrotation Yrotation 
					JOINT Head
					{
						OFFSET 6.45672 0.0 0.0
						CHANNELS 6 Xposition Yposition Zposition Zrotation Xrotation Yrotation 
						End Site
						{
							OFFSET 0.0 0.0 0.0
						}
					}
				}
				JOINT Shoulder_L
				{
					OFFSET 12.9942 -0.242716 4.98039
					CHANNELS 6 Xposition Yposition Zposition Zrotation Xrotation Yrotation 
					JOINT UpperArm_L
					{
						OFFSET 5.34809 0.0 0.0
						CHANNELS 6 Xposition Yposition Zposition Zrotation Xrotation Yrotation 
						JOINT LowerArm_L
						{
							OFFSET 24.3286 1.87007e-05 0.0
							CHANNELS 6 Xposition Yposition Zposition Zrotation Xrotation Yrotation 
							JOINT Hand_L
							{
								OFFSET 22.2916 0.0 0.0
								CHANNELS 6 Xposition Yposition Zposition Zrotation Xrotation Yrotation 
								End Site
								{
									OFFSET 0.0 0.0 0.0
								}
							}
						}
					}
				}
				JOINT Shoulder_R
				{
					OFFSET 12.9945 -0.242716 -4.98039
					CHANNELS 6 Xposition Yposition Zposition Zrotation Xrotation Yrotation 
					JOINT UpperArm_R
					{
						OFFSET -5.34813 0.0 0.0
						CHANNELS 6 Xposition Yposition Zposition Zrotation Xrotation Yrotation 
						JOINT LowerArm_R
						{
							OFFSET -24.3289 0.000322201 0.0
							CHANNELS 6 Xposition Yposition Zposition Zrotation Xrotation Yrotation 
							JOINT Hand_R
							{
								OFFSET -22.2915 -0.000108084 0.0
								CHANNELS 6 Xposition Yposition Zposition Zrotation Xrotation Yrotation 
								End Site
								{
									OFFSET 0.0 0.0 0.0
								}
							}
						}
					}
				}
			}
		}
		JOINT UpperLeg_L
		{
			OFFSET -2.19248 -6.46944 0.0
			CHANNELS 6 Xposition Yposition Zposition Zrotation Xrotation Yrotation 
			JOINT LowerLeg_L
			{
				OFFSET 39.0811 0.0 -1.23785e-05
				CHANNELS 6 Xposition Yposition Zposition Zrotation Xrotation Yrotation 
				JOINT Foot_L
				{
					OFFSET 40.9854 0.0 -1.26872e-05
					CHANNELS 6 Xposition Yposition Zposition Zrotation Xrotation Yrotation 
					JOINT Toes_L
					{
						OFFSET 11.7543 0.0 0.0
						CHANNELS 6 Xposition Yposition Zposition Zrotation Xrotation Yrotation 
						End Site
						{
							OFFSET 0.0 0.0 0.0
						}
					}
				}
			}
		}
		JOINT UpperLeg_R
		{
			OFFSET -2.19251 6.46944 0.0
			CHANNELS 6 Xposition Yposition Zposition Zrotation Xrotation Yrotation 
			JOINT LowerLeg_R
			{
				OFFSET -39.0811 -0.00228153 -0.0401928
				CHANNELS 6 Xposition Yposition Zposition Zrotation Xrotation Yrotation 
				JOINT Foot_R
				{
					OFFSET -40.9854 0.0 0.0
					CHANNELS 6 Xposition Yposition Zposition Zrotation Xrotation Yrotation 
					JOINT Toes_R
					{
						OFFSET -11.7543 0.0 0.0
						CHANNELS 6 Xposition Yposition Zposition Zrotation Xrotation Yrotation 
						End Site
						{
							OFFSET 0.0 0.0 0.0
						}
					}
				}
			}
		}
	}
}
MOTION
Frames:	7
Frame Time:	0.0333333
0.000000 0.000000 0.000000 0.000000 0.000000 -0.000000 0.745480 85.677300 1.187110 88.177700 -5.145620 12.284700 15.735700 0.000005 -0.000001 82.222400 80.306200 -79.061200 8.984550 -0.406207 -0.000000 11.528700 -2.498680 6.573280 16.377300 -0.000001 -0.000001 -0.969693 1.366530 1.897200 6.456720 -0.000001 -0.000000 -2.598090 7.381040 -2.780300 12.994200 -0.242716 4.980390 -89.982200 -0.059770 -73.393700 5.348090 -0.000007 -0.000001 -71.614200 33.282500 -5.646670 24.328600 0.000019 0.000005 11.498100 14.270500 -39.528500 22.291600 -0.000001 0.000005 14.644300 5.260550 1.151670 12.994500 -0.242716 -4.980390 86.692100 13.421300 -76.016900 -5.348130 -0.000001 -0.000004 -59.262300 4.925600 -8.492720 -24.328900 0.000322 -0.000009 -1.872400 -8.592940 -12.317300 -22.291500 -0.000108 -0.000004 10.479400 5.047050 6.313770 -2.192480 -6.469440 -0.000000 -174.278000 -9.960510 -6.608140 39.081100 -0.000007 -0.000012 -0.462550 0.368565 51.452900 40.985400 -0.000006 -0.000013 -0.099861 0.653561 -82.345000 11.754300 -0.000000 0.000003 -0.000323 -0.002764 -16.680300 -2.192510 6.469440 -0.000001 176.129000 11.287400 172.727000 -39.081100 -0.002282 -0.040193 0.059091 -0.045080 51.089400 -40.985400 0.000008 0.000006 4.961940 4.825420 -81.013300 -11.754300 -0.000006 -0.000006 -0.001536 -0.022756 -17.498400
0.000000 0.000000 0.000000 0.000000 0.000000 -0.000000 0.055342 86.964400 1.571120 87.934400 -3.331870 10.961900 15.735700 0.000005 -0.000001 82.919700 81.774200 -80.720300 8.984550 -0.406207 -0.000000 8.606370 -2.001830 4.545870 16.377300 -0.000001 -0.000001 0.170606 0.898094 1.288680 6.456720 -0.000001 -0.000000 -1.310900 5.831090 -2.086790 12.994200 -0.242716 4.980390 -90.127700 0.405267 -72.514700 5.348090 -0.000007 -0.000001 -71.122100 31.837200 -5.867480 24.328600 0.000019 0.000005 9.299490 13.265400 -35.509200 22.291600 -0.000001 0.000005 14.828200 5.245950 1.539880 12.994500 -0.242716 -4.980390 87.004600 11.976600 -75.846800 -5.348130 -0.000001 -0.000004 -60.008200 -6.118740 -11.057900 -24.328900 0.000322 -0.000009 -0.914037 -8.383060 -6.251040 -22.291500 -0.000108 -0.000004 10.362400 4.790320 11.477700 -2.192480 -6.469440 -0.000000 -173.813000 -9.076640 -5.793000 39.081100 -0.000007 -0.000012 -0.421278 0.391691 47.085200 40.985400 -0.000006 -0.000013 -0.213393 1.846070 -80.159200 11.754300 -0.000000 0.000003 -0.000301 -0.002607 -16.674700 -2.192510 6.469440 -0.000001 176.578000 13.627000 174.208000 -39.081100 -0.002282 -0.040193 0.054291 -0.048323 46.561100 -40.985400 0.000008 0.000006 5.340110 5.211100 -79.049100 -11.754300 -0.000006 -0.000006 -0.001518 -0.022510 -17.488500
0.000000 0.000000 0.000000 0.000000 0.000000 -0.000000 -0.526110 88.346600 1.740540 88.025800 -2.109560 8.933900 15.735700 0.000005 -0.000001 81.962700 83.499200 -81.109800 8.984550 -0.406207 -0.000000 5.124120 -1.833700 1.786200 16.377300 -0.000001 -0.000001 1.798870 0.764090 0.911630 6.456720 -0.000001 -0.000000 0.158674 4.568670 -1.810220 12.994200 -0.242716 4.980390 -90.089500 0.264399 -71.295100 5.348090 -0.000007 -0.000001 -70.424400 30.431500 -5.071170 24.328600 0.000019 0.000005 7.621520 12.220000 -32.299200 22.291600 -0.000001 0.000005 13.774400 5.234650 1.833570 12.994500 -0.242716 -4.980390 87.550500 9.763930 -75.842400 -5.348130 -0.000001 -0.000004 -60.624000 -18.664600 -17.457900 -24.328900 0.000322 -0.000009 -0.986378 -14.029100 -4.058710 -22.291500 -0.000108 -0.000004 13.341900 4.546890 15.817300 -2.192480 -6.469440 -0.000000 -173.901000 -8.645010 -5.413780 39.081100 -0.000007 -0.000012 -0.341415 0.380886 41.872900 40.985400 -0.000006 -0.000013 -0.462529 2.593400 -77.407800 11.754300 -0.000000 0.000003 -0.000251 -0.002244 -16.661600 -2.192510 6.469440 -0.000001 177.263000 14.700600 174.852000 -39.081100 -0.002282 -0.040193 0.046307 -0.048717 41.454700 -40.985400 0.000008 0.000006 5.358880 5.139600 -76.488500 -11.754300 -0.000006 -0.000006 -0.035476 -0.064904 -17.612700
0.000000 0.000000 0.000000 0.000000 0.000000 -0.000000 -0.984938 89.438400 1.800000 88.174000 -1.414080 7.163230 15.735700 0.000005 -0.000001 79.560000 84.925700 -79.987200 8.984550 -0.406207 -0.000000 2.208910 -1.816940 -0.818585 16.377300 -0.000001 -0.000001 3.363990 0.723353 0.281951 6.456720 -0.000001 -0.000000 1.050750 3.952070 -2.559410 12.994200 -0.242716 4.980390 -89.958200 -0.116160 -70.205400 5.348090 -0.000007 -0.000001 -69.466600 29.304500 -3.910680 24.328600 0.000019 0.000005 7.460550 13.085600 -30.045900 22.291600 -0.000001 0.000005 12.306000 5.238410 1.736840 12.994500 -0.242716 -4.980390 88.149900 7.365650 -75.859000 -5.348130 -0.000001 -0.000004 -60.489800 -26.823100 -28.310300 -24.328900 0.000322 -0.000009 -2.034130 -19.538700 -6.054410 -22.291500 -0.000108 -0.000004 15.151900 4.724670 12.700100 -2.192480 -6.469440 -0.000000 -173.991000 -8.670910 -5.026480 39.081100 -0.000007 -0.000012 -0.294232 0.387145 37.235600 40.985400 -0.000006 -0.000013 -0.696157 3.216780 -74.939000 11.754300 -0.000000 0.000003 -0.000218 -0.001988 -16.652400 -2.192510 6.469440 -0.000001 178.080000 14.609400 175.370000 -39.081100 -0.002282 -0.040193 0.043121 -0.053210 36.819900 -40.985400 0.000008 0.000006 5.384900 4.380100 -74.390600 -11.754300 -0.000006 -0.000006 -0.002057 -0.029428 -17.769700
0.000000 0.000000 0.000000 0.000000 0.000000 -0.000000 -1.333940 90.098100 1.754360 88.103200 -1.171920 6.231280 15.735700 0.000005 -0.000001 78.789800 85.577400 -80.043400 8.984550 -0.406207 -0.000000 0.894248 -1.643780 -2.492470 16.377300 -0.000001 -0.000001 3.792470 0.870839 -0.980509 6.456720 -0.000001 -0.000000 1.238740 3.721210 -4.107700 12.994200 -0.242716 4.980390 -90.068200 0.181162 -69.397400 5.348090 -0.000007 -0.000001 -67.620500 28.909800 -3.813880 24.328600 0.000019 0.000005 7.973770 15.143300 -28.201600 22.291600 -0.000001 0.000005 11.219900 5.236870 1.777480 12.994500 -0.242716 -4.980390 88.924000 4.683970 -77.053800 -5.348130 -0.000001 -0.000004 -59.143200 -33.491800 -40.886900 -24.328900 0.000322 -0.000009 -5.498760 -20.889000 -15.097000 -22.291500 -0.000108 -0.000004 14.600500 5.059320 6.024030 -2.192480 -6.469440 -0.000000 -173.730000 -9.126720 -4.538610 39.081100 -0.000007 -0.000012 -0.261688 0.384777 34.220300 40.985400 -0.000006 -0.000013 -0.829322 3.881100 -73.303800 11.754300 -0.000000 0.000003 -0.000184 -0.001727 -16.642800 -2.192510 6.469440 -0.000001 178.566000 15.148600 176.133000 -39.081100 -0.002282 -0.040193 0.038806 -0.053745 33.454200 -40.985400 0.000008 0.000006 5.606440 4.758900 -73.120000 -11.754300 -0.000006 -0.000006 -0.002278 -0.032149 -17.880400
0.000000 0.000000 0.000000 0.000000 0.000000 -0.000000 -1.620110 90.391700 1.566730 88.041000 -1.205240 5.932170 15.735700 0.000005 -0.000001 83.974600 85.728100 -85.763900 8.984550 -0.406207 -0.000000 0.721015 -0.786588 -3.570900 16.377300 -0.000001 -0.000001 3.695600 1.061790 -2.126940 6.456720 -0.000001 -0.000000 0.678365 3.705890 -6.201990 12.994200 -0.242716 4.980390 -90.465700 1.213980 -69.013900 5.348090 -0.000007 -0.000001 -64.551800 29.627000 -5.090910 24.328600 0.000019 0.000005 8.128470 17.263100 -25.702700 22.291600 -0.000001 0.000005 11.292500 5.224560 2.095120 12.994500 -0.242716 -4.980390 89.745400 1.245200 -78.452200 -5.348130 -0.000001 -0.000004 -52.901000 -39.787600 -48.920000 -24.328900 0.000322 -0.000009 -12.500200 -20.624500 -32.184600 -22.291500 -0.000108 -0.000004 16.635000 5.411430 -3.228610 -2.192480 -6.469440 -0.000000 -173.414000 -9.713530 -4.299010 39.081100 -0.000007 -0.000012 -0.246622 0.381686 32.868500 40.985400 -0.000006 -0.000013 -0.909280 4.463280 -72.427300 11.754300 -0.000000 0.000003 -0.000164 -0.001562 -16.636800 -2.192510 6.469440 -0.000001 178.532000 16.696700 176.740000 -39.081100 -0.002282 -0.040193 0.030762 -0.044574 31.639200 -40.985400 0.000008 0.000006 5.858790 6.489580 -72.693200 -11.754300 -0.000006 -0.000006 -0.002376 -0.033327 -17.928300
0.000000 0.000000 0.000000 0.000000 0.000000 -0.000000 -2.012500 90.572300 1.176110 87.965200 -0.792241 5.446690 15.735700 0.000005 -0.000001 89.926300 85.617800 -92.095100 8.984550 -0.406207 -0.000000 1.004340 0.116623 -4.335170 16.377300 -0.000001 -0.000001 3.483410 0.922976 -2.540950 6.456720 -0.000001 -0.000000 -0.476420 3.917700 -8.504380 12.994200 -0.242716 4.980390 -91.065700 2.736750 -68.713900 5.348090 -0.000007 -0.000001 -60.776200 29.613200 -7.319380 24.328600 0.000019 0.000005 8.126030 19.650100 -23.007800 22.291600 -0.000001 0.000005 12.365000 5.203200 2.636670 12.994500 -0.242716 -4.980390 90.456200 -2.234210 -78.468300 -5.348130 -0.000001 -0.000004 -45.689400 -48.558100 -56.567000 -24.328900 0.000322 -0.000009 -14.536200 -14.168700 -46.664400 -22.291500 -0.000108 -0.000004 20.910400 5.555960 -8.913580 -2.192480 -6.469440 -0.000000 -173.138000 -9.824070 -4.809450 39.081100 -0.000007 -0.000012 -0.239701 0.381231 32.160300 40.985400 -0.000006 -0.000013 -1.052760 5.007600 -71.677400 11.754300 -0.000000 0.000003 -0.000173 -0.001641 -16.639700 -2.192510 6.469440 -0.000001 178.765000 18.413600 176.622000 -39.081100 -0.002282 -0.040193 0.027405 -0.040757 30.600800 -40.985400 0.000008 0.000006 6.414770 7.766180 -72.401400 -11.754300 -0.000006 -0.000006 -0.002449 -0.034197 -17.963700
